# xmcd
#
# Track frame offsets:
#	150
#	16106
#	34029
#	50751
#	69948
#	84974
#	106682
#	124866
#	143455
#	163220
#
# Disc length: 2426 seconds
#
# Revision: 10
# Processed by: cddbd v1.5.2PL0 Copyright (c) Steve Scherf et al.
# Submitted via: Jack! The Knife
#
DISCID=7409780a
DTITLE=Death - Individual Thought Patterns
DYEAR=1993
DGENRE=Death Metal
TTITLE0=Overactive Imagination
TTITLE1=In Human Form
TTITLE2=Jealousy
TTITLE3=Trapped in a Corner
TTITLE4=Nothing is Everything
TTITLE5=Mentally Blind
TTITLE6=Individual Thought Patterns
TTITLE7=Destiny
TTITLE8=Out of Touch
TTITLE9=The Philosopher
EXTD=
EXTT0=
EXTT1=
EXTT2=
EXTT3=
EXTT4=
EXTT5=
EXTT6=
EXTT7=
EXTT8=
EXTT9=
PLAYORDER=
